<?xml version="1.0" standalone="no"?><!DOCTYPE svg PUBLIC "-//W3C//DTD SVG 1.1//EN"
    "http://www.w3.org/Graphics/SVG/1.1/DTD/svg11.dtd">
<svg t="1639105784221" class="icon" viewBox="0 0 1024 1024" version="1.1"
    xmlns="http://www.w3.org/2000/svg" p-id="95783" width="200" height="200">
    <defs></defs>
    <path
        d="M818.3 729.9h-29.9V660c0-11-8.9-20-20-20-11 0-20 8.9-20 20v89.8c0 11 8.9 20 20 20h49.9c11 0 20-8.9 20-20 0-11-9-19.9-20-19.9z"
        fill="#FE7743" p-id="95784"></path>
    <path
        d="M732.7 234.1H666v32.2c0 23.2-19 42.1-42.1 42.1-23.2 0-42.1-19-42.1-42.1v-32.2H324.5v32.2c0 23.2-19 42.1-42.1 42.1-23.2 0-42.1-19-42.1-42.1v-32.2h-72.1c-33 0-60 27-60 60v457c0 33 27 60 60 60H661.5c-14.1-22.1-22.3-48.3-22.3-76.4 0-78.4 63.6-142 142-142 3.9 0 7.8 0.2 11.6 0.5V294.1c-0.1-33-27.1-60-60.1-60zM565.8 440c-16.8 14.6-31.5 32.5-44.6 53.8-12.9 21.3-23.6 44-32.3 68-8.7 24-15.4 48.3-20.1 73-4.7 24.6-7.3 47.5-7.5 68.8h-69.4c3.8-47.8 14.9-93.7 33.5-137.8 18.8-44 43.3-84.5 73.7-121.3H347.8v-60.2h218.1V440z"
        fill="#F9B5A0" p-id="95785"></path>
    <path
        d="M732.7 211.6h-28.5v-31.3c0-44.4-36.1-80.5-80.5-80.5s-80.5 36.1-80.5 80.5v31.3H362.8v-31.3c0-44.4-36.1-80.5-80.5-80.5s-80.5 36.1-80.5 80.5v31.3h-33.7c-45.5 0-82.5 37-82.5 82.5v457c0 45.5 37 82.5 82.5 82.5h401.2c12.4 0 22.5-10.1 22.5-22.5s-10.1-22.5-22.5-22.5H168.1c-20.7 0-37.5-16.8-37.5-37.5v-457c0-20.7 16.8-37.5 37.5-37.5h33.7v12.9c0 44.4 36.1 80.5 80.5 80.5s80.5-36.1 80.5-80.5v-12.9h180.5v12.9c0 44.4 36.1 80.5 80.5 80.5s80.5-36.1 80.5-80.5v-12.9h28.5c20.7 0 37.5 16.8 37.5 37.5v220c0 12.4 10.1 22.5 22.5 22.5s22.5-10.1 22.5-22.5v-220c-0.1-45.5-37.1-82.5-82.6-82.5z m-414.9 57.9c0 19.6-15.9 35.5-35.5 35.5s-35.5-15.9-35.5-35.5v-89.2c0-19.6 15.9-35.5 35.5-35.5s35.5 15.9 35.5 35.5v89.2z m341.5 0c0 19.6-15.9 35.5-35.5 35.5s-35.5-15.9-35.5-35.5v-89.2c0-19.6 15.9-35.5 35.5-35.5s35.5 15.9 35.5 35.5v89.2z"
        fill="#FE7743" p-id="95786"></path>
    <path
        d="M777.8 891.1c-88.8 0-161.1-72.3-161.1-161.1S689 568.9 777.8 568.9 938.9 641.2 938.9 730s-72.3 161.1-161.1 161.1z m0-277.3c-64 0-116.1 52.1-116.1 116.1 0 64 52.1 116.1 116.1 116.1 64 0 116.1-52.1 116.1-116.1 0-64-52.1-116.1-116.1-116.1z"
        fill="#FE7743" p-id="95787"></path>
</svg>