<?xml version="1.0" standalone="no"?><!DOCTYPE svg PUBLIC "-//W3C//DTD SVG 1.1//EN"
    "http://www.w3.org/Graphics/SVG/1.1/DTD/svg11.dtd">
<svg t="1638933965607" class="icon" viewBox="0 0 1024 1024" version="1.1"
    xmlns="http://www.w3.org/2000/svg" p-id="53168" width="200" height="200">
    <defs></defs>
    <path
        d="M512 85.333333c235.637333 0 426.666667 191.029333 426.666667 426.666667S747.637333 938.666667 512 938.666667 85.333333 747.637333 85.333333 512 276.362667 85.333333 512 85.333333z m149.162667 222.901334L444.16 386.357333a96 96 0 0 0-57.802667 57.813334l-78.122666 216.992a42.666667 42.666667 0 0 0 54.602666 54.602666l217.002667-78.122666a96 96 0 0 0 57.802667-57.813334l78.122666-216.992a42.666667 42.666667 0 0 0-54.602666-54.602666zM512 565.333333a53.333333 53.333333 0 1 0 0-106.666666 53.333333 53.333333 0 0 0 0 106.666666z"
        p-id="53169" fill="#8a8a8a"></path>
</svg>