<?xml version="1.0" standalone="no"?><!DOCTYPE svg PUBLIC "-//W3C//DTD SVG 1.1//EN"
    "http://www.w3.org/Graphics/SVG/1.1/DTD/svg11.dtd">
<svg t="1639104891405" class="icon" viewBox="0 0 1024 1024" version="1.1"
    xmlns="http://www.w3.org/2000/svg" p-id="70779" width="200" height="200">
    <defs></defs>
    <path
        d="M512 248.1c-85.3-85.3-223.5-85.5-309.1-0.6-85.8 85.2-84.8 226 0.6 311.4l224.7 224.7c46.3 46.3 121.3 46.3 167.6 0L820.5 559c85.5-85.5 86.4-226.3 0.6-311.4-85.6-85-223.8-84.8-309.1 0.5z"
        fill="#F74D7A" p-id="70780"></path>
    <path
        d="M512 427.6c-25.1-25.1-65.9-25-90.9 0.3-24.8 25.2-24.1 65.8 0.9 90.8l64.1 64.1c14.3 14.3 37.6 14.3 51.9 0l64.1-64.1c25-25 25.7-65.7 0.9-90.8-25.1-25.4-65.9-25.5-91-0.3z"
        fill="#FFFFFF" p-id="70781"></path>
</svg>