<?xml version="1.0" standalone="no"?><!DOCTYPE svg PUBLIC "-//W3C//DTD SVG 1.1//EN"
    "http://www.w3.org/Graphics/SVG/1.1/DTD/svg11.dtd">
<svg t="1639105239116" class="icon" viewBox="0 0 1024 1024" version="1.1"
    xmlns="http://www.w3.org/2000/svg" p-id="84799" width="200" height="200">
    <defs></defs>
    <path
        d="M894.4 354.6l-216.5-31.1-96.8-194.3c-28.2-56.7-109.5-56.7-137.7 0l-96.8 194.3L130 354.6c-63 9-88.3 86.1-42.6 130.3L244 636.1l-37 213.4c-11 62.3 55 109.8 111.4 80.6l193.8-100.9 193.7 100.9c56.3 29.3 122.3-18.2 111.4-80.6l-36.9-213.4L937 484.9c45.8-44.2 20.5-121.3-42.6-130.3zM692.4 537l-49.6 48 12.3 71.4c1.7 9.5-1.9 19.1-9.3 25.2-7.4 6.1-17.5 7.9-26.6 4.5-9-3.3-15.6-11.2-17.2-20.7l-14.7-85.3c-1.5-8.7 1.4-17.6 7.8-23.8l59.8-57.8c10.7-10.3 27.7-10.1 38.1 0.6 10.4 10.6 10.1 27.6-0.6 37.9z"
        fill="#f5bf08" p-id="84800"></path>
</svg>