<?xml version="1.0" standalone="no"?><!DOCTYPE svg PUBLIC "-//W3C//DTD SVG 1.1//EN"
    "http://www.w3.org/Graphics/SVG/1.1/DTD/svg11.dtd">
<svg t="1639106595866" class="icon" viewBox="0 0 1024 1024" version="1.1"
    xmlns="http://www.w3.org/2000/svg" p-id="105828" width="200" height="200">
    <defs></defs>
    <path
        d="M748.854303 285.758061a31.030303 31.030303 0 0 0-22.434909-9.619394h-0.03103a31.030303 31.030303 0 0 0-22.49697 9.681454c-0.99297 1.05503-19.176727 20.293818-44.900849 52.689455-92.066909-171.566545-215.319273-295.842909-220.935757-301.490424a31.030303 31.030303 0 0 0-43.876849 0C381.145212 50.051879 74.78303 360.044606 74.78303 679.501576c0 188.167758 153.134545 341.271273 341.333334 341.271272h310.30303c136.874667 0 248.211394-115.991273 248.211394-258.544484 0-237.226667-216.560485-466.819879-225.776485-476.470303"
        fill="#EEAF4B" p-id="105829"></path>
    <path
        d="M648.936727 927.495758h-190.122666c-70.283636 0-132.716606-58.616242-135.602425-130.420364-4.344242-107.582061 76.179394-216.839758 115.122425-263.13697a26.561939 26.561939 0 0 1 40.928969 0.031031c26.313697 31.371636 71.68 91.632485 96.938667 160.643878a504.86303 504.86303 0 0 1 51.944727-76.613818 26.624 26.624 0 0 1 41.487515-0.155151c32.457697 39.625697 91.384242 123.438545 87.784728 205.88606-2.513455 57.157818-52.534303 103.765333-108.48194 103.765334"
        fill="#E48130" p-id="105830"></path>
</svg>