<?xml version="1.0" standalone="no"?><!DOCTYPE svg PUBLIC "-//W3C//DTD SVG 1.1//EN"
    "http://www.w3.org/Graphics/SVG/1.1/DTD/svg11.dtd">
<svg t="1639105359205" class="icon" viewBox="0 0 1024 1024" version="1.1"
    xmlns="http://www.w3.org/2000/svg" p-id="92138" width="200" height="200">
    <defs></defs>
    <path
        d="M512 938.666667l-182.826667-243.84L85.333333 512l243.84-182.826667L512 85.333333l182.826667 243.84L938.666667 512l-243.84 182.826667L512 938.666667z"
        fill="#FF9800" p-id="92139"></path>
    <path
        d="M881.493333 725.333333l-302.506666 36.48L298.666667 881.493333l-36.48-302.506666L142.506667 298.666667l302.506666-36.48L725.333333 142.506667l36.48 302.506666L881.493333 725.333333z"
        fill="#FF9800" p-id="92140"></path>
    <path
        d="M881.493333 298.666667l-119.68 280.32L725.333333 881.493333l-280.32-119.68L142.506667 725.333333l119.68-280.32L298.666667 142.506667l280.32 119.68L881.493333 298.666667z"
        fill="#FF9800" p-id="92141"></path>
    <path d="M512 512m-256 0a256 256 0 1 0 512 0 256 256 0 1 0-512 0Z" fill="#FFC107"
        p-id="92142"></path>
</svg>