<?xml version="1.0" standalone="no"?><!DOCTYPE svg PUBLIC "-//W3C//DTD SVG 1.1//EN"
    "http://www.w3.org/Graphics/SVG/1.1/DTD/svg11.dtd">
<svg version="1.1" viewBox="0 0 1024 1024" xmlns="http://www.w3.org/2000/svg">
    <path
        d="M983.359394 253.724679c-47.535643-78.727039-178.554652-93.514837-335.864444-51.341319-54.628178-51.052746-127.761825-82.531692-208.419843-82.531692-168.811754 0-305.683051 136.871297-305.683051 305.683051 0 28.797883 4.267187 56.529481 11.703553 82.935897C38.205137 626.40154-7.342222 746.812957 39.532365 824.358077c73.308633 121.217782 344.023264 91.785449 604.648097-65.811892C904.806317 600.976474 1056.664957 374.943484 983.359394 253.724679zM312.726467 598.179778c-53.099359-38.944987-87.605244-101.759615-87.605244-172.645059 0-118.104885 95.764064-213.867926 213.896578-213.867926 103.374392 0 189.624778 73.307609 209.601762 170.742732C584.737628 608.904027 312.726467 598.179778 312.726467 598.179778z" />
</svg>