<?xml version="1.0" standalone="no"?><!DOCTYPE svg PUBLIC "-//W3C//DTD SVG 1.1//EN"
    "http://www.w3.org/Graphics/SVG/1.1/DTD/svg11.dtd">
<svg version="1.1" viewBox="0 0 1024 1024" xmlns="http://www.w3.org/2000/svg">
    <path
        d="M639.852388 316.278363c13.847379 13.721513 30.447453 24.726148 48.51597 32.16456 18.099217 7.440459 37.669948 11.316743 57.268308 11.316743s39.168068-3.876284 57.269331-11.316743c18.099217-7.439436 34.69622-18.443048 48.544623-32.16456 13.847379-13.723559 24.947182-30.167067 32.417317-48.140417 7.501858-17.942651 11.408841-37.356816 11.408841-56.768935 0-19.411095-3.906983-38.85596-11.408841-56.767911-7.470135-17.97335-18.568914-34.416857-32.417317-48.140417-13.848403-13.723559-30.446429-24.726148-48.544623-32.166607-18.10024-7.439436-37.670971-11.314697-57.269331-11.314697s-39.169091 3.876284-57.268308 11.314697c-18.068518 7.440459-34.668591 18.443048-48.51597 32.166607-13.847379 13.724583-24.945135 30.167067-32.448016 48.140417-7.502881 17.911952-11.378142 37.356816-11.378142 56.767911 0 19.412119 3.875261 38.826284 11.378142 56.768935C614.907253 286.111297 626.005009 302.554804 639.852388 316.278363zM851.451644 705.994296c-13.848403-13.723559-30.446429-24.695448-48.544623-32.132838-18.10024-7.441483-37.670971-11.316743-57.269331-11.316743s-39.169091 3.874237-57.268308 11.316743c-18.068518 7.438413-34.668591 18.409279-48.51597 32.132838-13.847379 13.754259-24.945135 30.199813-32.448016 48.142463s-11.378142 37.384445-11.378142 56.765865c0 19.445888 3.875261 38.856983 11.378142 56.799634s18.600637 34.418904 32.448016 48.110741c13.847379 13.754259 30.447453 24.75787 48.51597 32.197306 18.099217 7.441483 37.669948 11.255345 57.268308 11.255345s39.168068-3.813862 57.269331-11.255345c18.099217-7.439436 34.69622-18.442024 48.544623-32.197306 13.847379-13.691837 24.947182-30.167067 32.417317-48.110741 7.501858-17.942651 11.408841-37.353746 11.408841-56.799634 0-19.380396-3.906983-38.822191-11.408841-56.765865C876.397802 736.194108 865.299023 719.749578 851.451644 705.994296zM435.443905 361.259834c-20.192901-20.005636-44.388976-36.041868-70.771857-46.888913-26.414603-10.815323-54.954613-16.443507-83.495646-16.443507-28.570709 0-57.111742 5.628184-83.495646 16.443507-26.38288 10.847046-50.578955 26.883277-70.77288 46.888913-20.193925 20.039405-36.386722 44.045145-47.296189 70.210062-10.940167 26.163893-16.59905 54.454216-16.59905 82.775238 0 28.323069 5.65786 56.643068 16.59905 82.776262 10.910491 26.196639 27.102265 50.204425 47.296189 70.211085 20.193925 20.005636 44.388976 36.042891 70.77288 46.888913 26.383904 10.8143 54.923914 16.443507 83.495646 16.443507 28.541033 0 57.081043-5.629207 83.495646-16.443507 26.381857-10.847046 50.577932-26.883277 70.771857-46.888913 20.194948-20.007683 36.356023-44.01547 47.296189-70.211085 10.910491-26.133194 16.59905-54.453193 16.59905-82.776262 0-28.321022-5.688559-56.611346-16.59905-82.775238C471.799928 405.306003 455.638853 381.299239 435.443905 361.259834z" />
</svg>