<?xml version="1.0" standalone="no"?><!DOCTYPE svg PUBLIC "-//W3C//DTD SVG 1.1//EN"
    "http://www.w3.org/Graphics/SVG/1.1/DTD/svg11.dtd">
<svg version="1.1" viewBox="0 0 1024 1024" xmlns="http://www.w3.org/2000/svg">
    <path
        d="M511.99937862 16.15312759c-273.85585725 0-495.84687241 221.99101516-495.8468724 495.84687241s221.99101516 495.84687241 495.8468724 495.84687241 495.84687241-221.99101516 495.84687241-495.84687241S785.85523587 16.15312759 511.99937862 16.15312759zM710.47722265 712.2003789c-13.34188927 13.50333842-30.88393588 20.17614597-48.37009484 20.17614597-17.53831955 0-35.02199542-6.67280756-48.36636899-20.17614597L476.97365857 574.5179871c-12.37567988-12.37443835-20.01593958-29.59110235-20.06810018-48.52905969L456.90555839 250.30248827c0-38.0944918 30.61319817-68.86665482 68.38355012-68.86665481 37.82499684 0 68.43571071 30.77216302 68.43571072 68.86665481l0 246.95598467 116.75364496 117.55840519C737.16348549 641.66334859 737.16348549 685.35142415 710.47722265 712.2003789z" />
</svg>