<?xml version="1.0" standalone="no"?><!DOCTYPE svg PUBLIC "-//W3C//DTD SVG 1.1//EN"
    "http://www.w3.org/Graphics/SVG/1.1/DTD/svg11.dtd">
<svg version="1.1" viewBox="0 0 1024 1024" xmlns="http://www.w3.org/2000/svg">
    <path
        d="M510.75435967 60.92415401c124.84223522 0 226.04089844 99.54691694 226.04089845 222.32757406 0 122.80673682-101.1974217 222.35862116-226.04089845 222.35862115-124.83726783 0-226.03468951-99.55188432-226.03468952-222.35862115C284.71842862 160.44250575 385.95062322 60.92415401 510.75435967 60.92415401L510.75435967 60.92415401 510.75435967 60.92415401 510.75435967 60.92415401z" />
    <path
        d="M412.66172541 566.0791761l198.67530764 0c170.05786636 0 307.89798146 112.45041042 307.89798146 279.7350821l0 19.51047983c0 65.92331776-137.86992064 97.74986642-307.89798146 97.74986642L412.66172541 963.07460445c-170.06283493 0-307.89798146-29.41723411-307.89798146-97.74986642l0-19.51047983C104.76622704 678.52958652 242.60013323 566.0791761 412.66172541 566.0791761L412.66172541 566.0791761 412.66172541 566.0791761 412.66172541 566.0791761z" />
</svg>